HIERARCHY
ROOT Hips
{
 OFFSET 0.000000 0.000000 0.000000
 CHANNELS 6 Xposition Yposition Zposition Yrotation Xrotation Zrotation
 JOINT Chest
 {
  OFFSET 0.000000 9.585900 0.002600
  CHANNELS 3 Yrotation Xrotation Zrotation
  JOINT Chest2
  {
   OFFSET 0.000000 9.601200 -0.005300
   CHANNELS 3 Yrotation Xrotation Zrotation
   JOINT Chest3
   {
    OFFSET 0.000000 9.561800 0.000000
    CHANNELS 3 Yrotation Xrotation Zrotation
    JOINT Chest4
    {
     OFFSET 0.000000 9.552100 0.000000
     CHANNELS 3 Yrotation Xrotation Zrotation
     JOINT Neck
     {
      OFFSET 0.000000 14.453000 0.000000
      CHANNELS 3 Yrotation Xrotation Zrotation
      JOINT Head
      {
       OFFSET 0.000000 8.936500 -0.011300
       CHANNELS 3 Yrotation Xrotation Zrotation
       End Site
       {
        OFFSET 0.000000 17.073600 -0.006000
       }
      }
     }
     JOINT RightCollar
     {
      OFFSET -2.921100 9.558500 0.000000
      CHANNELS 3 Yrotation Xrotation Zrotation
      JOINT RightShoulder
      {
       OFFSET -13.519700 0.000000 0.000000
       CHANNELS 3 Yrotation Xrotation Zrotation
       JOINT RightElbow
       {
        OFFSET 0.000000 -29.696600 0.000000
        CHANNELS 3 Yrotation Xrotation Zrotation
        JOINT RightWrist
        {
         OFFSET 0.000000 -24.004700 0.000000
         CHANNELS 3 Yrotation Xrotation Zrotation
         End Site
         {
          OFFSET 0.000000 -17.728500 0.000000
         }
        }
       }
      }
     }
     JOINT LeftCollar
     {
      OFFSET 2.921100 9.558500 0.000000
      CHANNELS 3 Yrotation Xrotation Zrotation
      JOINT LeftShoulder
      {
       OFFSET 13.519700 0.000000 0.000000
       CHANNELS 3 Yrotation Xrotation Zrotation
       JOINT LeftElbow
       {
        OFFSET 0.000000 -29.696600 0.000000
        CHANNELS 3 Yrotation Xrotation Zrotation
        JOINT LeftWrist
        {
         OFFSET 0.000000 -24.004700 0.000000
         CHANNELS 3 Yrotation Xrotation Zrotation
         End Site
         {
          OFFSET 0.000000 -17.728500 0.000000
         }
        }
       }
      }
     }
    }
   }
  }
 }
 JOINT RightHip
 {
  OFFSET -7.771700 -0.012900 -0.001300
  CHANNELS 3 Yrotation Xrotation Zrotation
  JOINT RightKnee
  {
   OFFSET 0.000000 -40.869800 0.001200
   CHANNELS 3 Yrotation Xrotation Zrotation
   JOINT RightAnkle
   {
    OFFSET 0.000000 -39.717900 0.002100
    CHANNELS 3 Yrotation Xrotation Zrotation
    JOINT RightToe
    {
     OFFSET 0.000000 -4.965400 11.033500
     CHANNELS 3 Yrotation Xrotation Zrotation
     End Site
     {
      OFFSET 0.000000 -1.423100 5.872300
     }
    }
   }
  }
 }
 JOINT LeftHip
 {
  OFFSET 7.771700 -0.012900 -0.001300
  CHANNELS 3 Yrotation Xrotation Zrotation
  JOINT LeftKnee
  {
   OFFSET 0.000000 -40.869800 0.001200
   CHANNELS 3 Yrotation Xrotation Zrotation
   JOINT LeftAnkle
   {
    OFFSET 0.000000 -39.717900 0.002100
    CHANNELS 3 Yrotation Xrotation Zrotation
    JOINT LeftToe
    {
     OFFSET 0.000000 -4.965400 11.033500
     CHANNELS 3 Yrotation Xrotation Zrotation
     End Site
     {
      OFFSET 0.000000 -1.423100 5.872300
     }
    }
   }
  }
 }
}
MOTION
Frames: 12
Frame Time: 0.008333
0.000000 85.388000 0.000000 0.000000 -5.767877 0.000000 0.000000 11.653817 0.000000 0.000000 -5.885947 0.000000 0.000000 -0.000000 0.000000 0.000000 -0.000000 0.000000 0.000000 12.528835 0.000000 0.000000 0.711642 0.000000 0.000000 -0.000000 0.000000 0.000000 0.000000 -90.000000 0.000000 -2.309062 0.000000 0.000000 2.309062 0.000000 0.000000 -0.000000 0.000000 0.000000 -0.000000 90.000000 0.000000 -2.309062 0.000000 0.000000 2.309062 0.000000 0.000000 8.520406 0.000000 0.000000 1.905762 0.000000 -0.000000 -4.658285 0.000000 0.000000 -0.000000 0.000000 0.000000 8.520406 0.000000 0.000000 1.905762 0.000000 -0.000000 -4.658285 0.000000 0.000000 -0.000000 0.000000
-11.450300 55.745217 22.201464 -173.201847 -29.412381 -9.199232 -2.614202 11.393551 4.718420 -1.461209 6.527213 2.337223 -1.783392 8.094131 2.910208 -1.462511 6.497798 2.343774 3.444701 21.983822 1.649463 3.328514 -2.186435 0.986598 3.967255 -1.668127 -4.600162 3.488696 -15.524825 9.233616 -49.931365 -50.862368 66.229778 3.918492 5.002937 -23.106673 -9.162264 1.657672 -3.766905 1.525261 -4.077032 -6.646748 83.770250 -64.579813 -94.750662 20.350683 -7.347199 23.055129 -21.708556 -36.102696 6.201461 11.546725 87.240634 9.521102 1.413881 -18.106943 -3.108514 -0.014663 0.515765 -0.003554 -12.092417 -47.580338 9.381914 -177.035400 81.280327 176.478217 -3.063321 -17.925734 5.678206 -0.011366 -0.532893 -0.020835
-11.447889 55.741767 22.201182 -173.197033 -29.365533 -9.215318 -2.614208 11.335022 4.727125 -1.465190 6.502004 2.346628 -1.789645 8.067717 2.921140 -1.461781 6.490016 2.343830 3.465134 22.007902 1.612231 3.360742 -2.136302 0.935536 3.965592 -1.702762 -4.541733 3.415464 -15.531870 9.170358 -49.747326 -50.813523 66.085855 3.882474 5.008007 -23.106903 -9.184036 1.635613 -3.760352 1.561606 -4.097263 -6.547395 83.619435 -64.776486 -94.663337 20.376463 -7.420614 22.922431 -21.740055 -36.140684 6.238310 11.439707 87.243499 9.417593 1.415917 -18.108936 -3.113146 -0.013501 0.520892 -0.002510 -12.191178 -47.629767 9.401145 -177.256154 81.268038 176.277232 -3.026230 -17.929228 5.622683 -0.014618 -0.530903 -0.024549
-11.446599 55.739838 22.198774 -173.193523 -29.338043 -9.228567 -2.618276 11.307089 4.739292 -1.474600 6.444117 2.357498 -1.797329 8.074124 2.925009 -1.453228 6.520648 2.328731 3.484353 21.990353 1.585662 3.396091 -2.094661 0.878739 3.965388 -1.777383 -4.473850 3.350051 -15.537391 9.108224 -49.610879 -50.765225 65.985707 3.870520 4.923084 -23.060675 -9.203506 1.572124 -3.731396 1.600266 -4.111830 -6.458981 83.501728 -64.980678 -94.601084 20.399515 -7.487345 22.801169 -21.753968 -36.160384 6.258178 11.352987 87.244845 9.337805 1.423766 -18.112878 -3.118957 -0.015006 0.523918 0.001085 -12.249195 -47.657905 9.409844 -177.383954 81.258149 176.168351 -3.003286 -17.934550 5.590273 -0.010705 -0.530538 -0.031216
-11.446395 55.738510 22.196767 -173.193990 -29.319241 -9.237211 -2.621789 11.281725 4.747701 -1.492715 6.426854 2.368098 -1.806097 8.054588 2.933446 -1.468440 6.451938 2.355199 3.507064 22.082202 1.516904 3.440173 -2.063352 0.808675 3.994103 -1.744256 -4.450083 3.295321 -15.547252 9.051769 -49.513599 -50.732758 65.914430 3.854666 4.864187 -23.009964 -9.187337 1.616377 -3.776161 1.620567 -4.138869 -6.369065 83.431962 -65.187908 -94.568243 20.415692 -7.543481 22.689029 -21.756199 -36.175036 6.266259 11.269326 87.245352 9.265547 1.436146 -18.113653 -3.127266 -0.015795 0.527924 0.000840 -12.299255 -47.677482 9.410528 -177.534576 81.249845 176.037137 -2.981041 -17.938111 5.552491 -0.006520 -0.531547 -0.034416
-11.446445 55.737582 22.196407 -173.203557 -29.306228 -9.243549 -2.630077 11.259034 4.759868 -1.497627 6.420401 2.372899 -1.823792 8.034360 2.945170 -1.483545 6.424290 2.370500 3.533457 22.144497 1.463223 3.493941 -2.044383 0.722724 4.030777 -1.745806 -4.424754 3.243022 -15.563576 9.005360 -49.442711 -50.721848 65.860459 3.849944 4.829728 -22.950936 -9.151437 1.655659 -3.825812 1.609686 -4.194412 -6.264778 83.410729 -65.389957 -94.558620 20.427858 -7.587916 22.574888 -21.754170 -36.185142 6.287521 11.184948 87.244130 9.178474 1.432902 -18.111573 -3.120790 -0.017232 0.529762 -0.000850 -12.326264 -47.691674 9.412453 -177.637949 81.243858 175.954038 -2.969089 -17.941332 5.526144 -0.012850 -0.528388 -0.024930
-11.447964 55.737162 22.197684 -173.210729 -29.301038 -9.246040 -2.645953 11.246694 4.766960 -1.484014 6.423418 2.370558 -1.853236 8.008200 2.964284 -1.472884 6.434032 2.359357 3.554774 22.143901 1.425422 3.540856 -2.005915 0.652380 4.047087 -1.753789 -4.409521 3.176041 -15.610405 9.002111 -49.391448 -50.733096 65.818938 3.857581 4.799097 -22.884136 -9.161967 1.605572 -3.808744 1.615229 -4.189702 -6.194961 83.424938 -65.574855 -94.563667 20.441382 -7.623530 22.455383 -21.746194 -36.190147 6.297946 11.055062 87.242140 9.045737 1.433541 -18.108995 -3.117816 -0.020746 0.532391 0.001762 -12.346597 -47.697947 9.410129 -177.736160 81.241673 175.868179 -2.961672 -17.940718 5.507586 -0.012511 -0.528199 -0.023018
-11.450343 55.736749 22.201709 -173.220105 -29.297574 -9.244886 -2.670084 11.234405 4.767507 -1.490022 6.414616 2.376799 -1.850344 8.000591 2.973453 -1.467938 6.442073 2.347856 3.575243 22.148334 1.387018 3.587772 -1.976812 0.580470 4.052907 -1.799728 -4.346729 3.177488 -15.576064 8.939221 -49.434041 -50.781415 65.847081 3.876667 4.773098 -22.815204 -9.168523 1.563101 -3.782375 1.616463 -4.185185 -6.140914 83.456866 -65.732407 -94.583061 20.458896 -7.653371 22.340084 -21.738235 -36.195749 6.306981 11.012576 87.235619 8.997088 1.426953 -18.104959 -3.111563 -0.020458 0.536624 0.002446 -12.393526 -47.703129 9.406740 -177.926962 81.241485 175.685589 -2.941525 -17.936242 5.471482 -0.015661 -0.529114 -0.024254
-11.451834 55.737317 22.207107 -173.255155 -29.307685 -9.239369 -2.657376 11.228847 4.782522 -1.523350 6.389144 2.395782 -1.832427 8.014895 2.962693 -1.470525 6.433231 2.353845 3.600793 22.171052 1.329282 3.622967 -1.957543 0.511513 4.052651 -1.821466 -4.303706 3.191699 -15.547958 8.881421 -49.491383 -50.842122 65.883173 3.903796 4.748510 -22.740808 -9.172289 1.535642 -3.774709 1.635717 -4.154555 -6.141232 83.519016 -65.899935 -94.656903 20.480081 -7.675885 22.236261 -21.709579 -36.190811 6.324501 10.840845 87.227729 8.816858 1.424223 -18.094173 -3.098911 -0.022998 0.540011 -0.000442 -12.408343 -47.695073 9.409034 -178.058646 81.242417 175.567912 -2.934314 -17.931634 5.453892 -0.004282 -0.530965 -0.035242
-11.454280 55.738192 22.214385 -173.279732 -29.321432 -9.234593 -2.690167 11.211731 4.792444 -1.499149 6.402527 2.392457 -1.834743 8.012280 2.968783 -1.493602 6.408793 2.384905 3.631239 22.206386 1.243894 3.656624 -1.938878 0.442791 4.085883 -1.789621 -4.334012 3.147185 -15.585691 8.898778 -49.482647 -50.908228 65.861947 3.935341 4.725869 -22.665952 -9.145795 1.519936 -3.800854 1.642317 -4.152928 -6.074752 83.543298 -65.954767 -94.686337 20.502485 -7.692484 22.150720 -21.684626 -36.183530 6.329889 10.690265 87.218058 8.661558 1.425250 -18.080084 -3.089416 -0.025466 0.541377 -0.001964 -12.405140 -47.682959 9.411096 -178.119573 81.248221 175.510328 -2.931442 -17.925669 5.447073 -0.004727 -0.530422 -0.033306
-11.456524 55.739457 22.223340 -173.306730 -29.339302 -9.230144 -2.692609 11.211434 4.801058 -1.485796 6.410448 2.391136 -1.849440 8.003091 2.982840 -1.500502 6.402134 2.397206 3.654775 22.220206 1.176649 3.685076 -1.918854 0.379192 4.105150 -1.779122 -4.347200 3.100042 -15.612711 8.930263 -49.467022 -51.004675 65.837454 3.966104 4.712846 -22.604409 -9.165540 1.451080 -3.774759 1.696784 -4.113605 -6.046235 83.556743 -65.970673 -94.721392 20.530047 -7.707401 22.086382 -21.656755 -36.172017 6.341974 10.455040 87.203800 8.414986 1.421497 -18.064095 -3.073781 -0.024686 0.542655 -0.004195 -12.400908 -47.667153 9.413912 -178.174449 81.256255 175.459259 -2.925249 -17.918057 5.439823 -0.004140 -0.529939 -0.032796
-11.458972 55.740794 22.234089 -173.329763 -29.356995 -9.225419 -2.699161 11.209902 4.808452 -1.473896 6.420417 2.388105 -1.862412 7.993699 2.998056 -1.501847 6.402439 2.401791 3.676246 22.224640 1.095577 3.709714 -1.894965 0.339226 4.096145 -1.814489 -4.295229 3.091805 -15.593575 8.908065 -49.443302 -51.123935 65.809905 3.993069 4.711218 -22.561398 -9.180803 1.422149 -3.777004 1.740156 -4.091068 -6.044495 83.604380 -66.013403 -94.805980 20.569291 -7.724128 22.040514 -21.633926 -36.160844 6.348423 10.329909 87.189354 8.281358 1.416863 -18.048321 -3.063180 -0.025512 0.545344 -0.005786 -12.429573 -47.654307 9.398528 -178.426375 81.263058 175.227397 -2.900561 -17.905076 5.389392 -0.002804 -0.532374 -0.031865
